<svg width="178" height="60" viewBox="0 0 178 60" fill="none" xmlns="http://www.w3.org/2000/svg">
<rect width="60.2817" height="60" rx="9.37716" fill="#9EFF00"/>
<path d="M10.9859 18.7123L30.1408 30L30.1408 51.5493L10.9859 40.6036L10.9859 18.7123Z" fill="#1A1A1A"/>
<path fill-rule="evenodd" clip-rule="evenodd" d="M31.831 29.9849V48.6369L47.6056 39.6228V20.6891L31.831 29.9849ZM49.2958 40.6036L30.1408 51.5493V30L10.9859 18.7123L30.1408 8.45069L49.2958 18.7123V40.6036ZM46.7195 19.2495L30.1408 10.3681L14.434 18.7824L30.9731 28.5287L46.7195 19.2495Z" fill="#1A1A1A"/>
<path d="M76.6069 20C79.6377 20 81.9332 21.6491 82.5126 24.3011L79.4817 24.9251C79.2589 23.5211 78.0332 22.6074 76.54 22.6074C75.0246 22.6074 74.1109 23.4542 74.1109 24.4571C74.1109 25.2148 74.4452 25.7497 75.604 25.9725L78.8132 26.6188C81.2423 27.1314 82.7354 28.58 82.7354 30.8977C82.7354 33.7948 80.3509 35.6 76.8074 35.6C73.6874 35.6 70.9463 34.1514 70.5674 31.1651L73.7543 30.5188C74.1554 32.2125 75.4034 32.948 77.0972 32.948C78.8354 32.948 79.7492 32.1234 79.7492 31.0537C79.7492 30.2068 79.348 29.6942 78.0109 29.4268L74.8463 28.8251C73.0634 28.4462 70.924 27.4657 70.924 24.5462C70.924 21.872 73.108 20 76.6069 20Z" fill="white"/>
<path d="M96.5888 24.1451V39.0542H93.6471V34.3965C92.7111 35.1542 91.4854 35.6 89.9699 35.6C87.1397 35.6 84.5099 33.2154 84.5099 29.7165C84.5099 26.2177 87.1397 23.8108 89.9699 23.8108C91.4854 23.8108 92.7111 24.2565 93.6471 25.0365V24.1451H96.5888ZM90.4825 33.0371C92.0648 33.0371 93.6471 31.7668 93.6471 29.7165C93.6471 27.6662 92.0648 26.3737 90.4825 26.3737C88.6997 26.3737 87.3625 27.6662 87.3625 29.7165C87.3625 31.7668 88.6997 33.0371 90.4825 33.0371Z" fill="white"/>
<path d="M110.199 24.1451V35.2657H107.257V34.2628C106.388 35.132 105.229 35.6 103.759 35.6C101.084 35.6 99.3014 33.6834 99.3014 30.92V24.1451H102.243V30.296C102.243 31.856 103.135 32.9034 104.494 32.9034C106.165 32.9034 107.257 31.7891 107.257 29.0702V24.1451H110.199Z" fill="white"/>
<path d="M124.511 24.1451V35.2657H121.57V34.3965C120.634 35.1542 119.408 35.6 117.892 35.6C115.062 35.6 112.432 33.2154 112.432 29.7165C112.432 26.2177 115.062 23.8108 117.892 23.8108C119.408 23.8108 120.634 24.2565 121.57 25.0365V24.1451H124.511ZM118.405 33.0371C119.987 33.0371 121.57 31.7668 121.57 29.7165C121.57 27.6662 119.987 26.3737 118.405 26.3737C116.622 26.3737 115.285 27.6662 115.285 29.7165C115.285 31.7668 116.622 33.0371 118.405 33.0371Z" fill="white"/>
<path d="M134.553 23.9891C134.843 23.9891 135.066 23.9891 135.333 24.0782L135.177 26.9085H134.531C131.812 26.9085 130.564 28.58 130.564 31.6777V35.2657H127.622V24.1451H130.564V26.1731C131.455 24.8805 132.748 23.9891 134.553 23.9891Z" fill="white"/>
<path d="M147.564 29.4937V30.4965H139.096C139.385 32.1011 140.522 33.0817 141.881 33.0817C142.751 33.0817 143.843 32.9702 144.645 31.6108L147.275 32.168C146.294 34.4857 144.311 35.6 141.881 35.6C138.739 35.6 136.176 33.2154 136.176 29.7165C136.176 26.2177 138.739 23.8108 141.926 23.8108C144.89 23.8108 147.453 26.1062 147.564 29.4937ZM141.926 26.3737C140.812 26.3737 139.541 27.0422 139.185 28.424H144.556C144.177 26.9977 143.107 26.3737 141.926 26.3737Z" fill="white"/>
<path d="M162.658 20.3342V28.58C162.658 32.7697 160.095 35.6 156.24 35.6C152.295 35.6 149.666 32.7697 149.666 28.58V20.3342H152.696V28.58C152.696 31.076 154.1 32.7028 156.24 32.7028C158.268 32.7028 159.627 31.076 159.627 28.58V20.3342H162.658Z" fill="white"/>
<path d="M172.262 23.8108C175.092 23.8108 177.722 26.2177 177.722 29.7165C177.722 33.2154 175.092 35.6 172.262 35.6C170.746 35.6 169.521 35.1542 168.585 34.3965V39.0542H165.643V24.1451H168.585V25.0365C169.521 24.2565 170.746 23.8108 172.262 23.8108ZM171.749 33.0371C173.532 33.0371 174.869 31.7668 174.869 29.7165C174.869 27.6662 173.532 26.3737 171.749 26.3737C170.167 26.3737 168.585 27.6662 168.585 29.7165C168.585 31.7668 170.167 33.0371 171.749 33.0371Z" fill="white"/>
</svg>
